<svg xmlns="http://www.w3.org/2000/svg" viewBox="102.5 145.891 370 283.21875"> <svg xmlns="http://www.w3.org/2000/svg" xmlns:xlink="http://www.w3.org/1999/xlink" version="1.1" id="Layer_1" x="172.5" y="215.891" viewBox="76 105.40000915527344 1842 1147" xml:space="preserve" height="143.21875" width="230" preserveAspectRatio="xMinYMin" enable-background="new 0 0 1994 1357.9" style="overflow: visible;"><path class="st0" d="M1542,416.1H527.9l68.9-127.5c61-112.8,178.9-183.2,307.2-183.2H1918l-68.9,127.5   C1788.2,345.8,1670.2,416.1,1542,416.1z" style="fill: #FF5B32; fill-opacity: 1;"></path><path class="st1" d="M938.8,830H304.2l68.9-127.5c61-112.8,178.9-183.2,307.2-183.2h634.6L1246,646.9   C1185,759.7,1067.1,830,938.8,830z" style="fill: #ff9e40; fill-opacity: 1;"></path><path class="st2" d="M258,1252.4H76l68.9-127.5c61-112.8,178.9-183.2,307.2-183.2h182l-68.9,127.5   C504.2,1182.1,386.3,1252.4,258,1252.4z" style="fill: #FFD852; fill-opacity: 1;"></path></svg></svg>